<!-- icon666.com - MILLIONS OF FREE VECTOR ICONS --><svg fill="none" viewBox="0 0 24 24" xmlns="http://www.w3.org/2000/svg"><g clip-rule="evenodd" fill="rgb(0,0,0)" fill-rule="evenodd"><path d="m1.25 11.9299c0-.4142.33579-.75.75-.75h20c.4142 0 .75.3358.75.75s-.3358.75-.75.75h-20c-.41421 0-.75-.3358-.75-.75z"></path><path d="m8.53773 4.47809c.28824.29747.28077.77228-.0167 1.06053l-5.16711 5.00688c-.19813.187-.35597.4123-.46382.6624-.10788.2501-.16354.5197-.16354.7921s.05566.542.16354.7921c.10785.2501.26564.4755.46377.6624l.0072.0068 5.15996 5.0001c.29747.2882.30494.763.0167 1.0605s-.76306.305-1.06053.0167l-5.15665-4.9967c-.34487-.3265-.61972-.7196-.80782-1.1558-.18876-.4377-.28617-.9094-.28617-1.3861s.09741-.9484.28617-1.3861c.18809-.4362.46294-.82931.8078-1.15575l5.15667-4.99676c.29747-.28825.77229-.28077 1.06053.0167z"></path></g></svg>